<svg xmlns="http://www.w3.org/2000/svg" xmlns:xlink="http://www.w3.org/1999/xlink" width="243" zoomAndPan="magnify" viewBox="0 0 182.25 80.249996" height="107" preserveAspectRatio="xMidYMid meet" version="1.0"><defs><g/></defs><g fill="#52eb94" fill-opacity="1"><g transform="translate(39.24463, 53.128465)"><g><path d="M 1.1875 0 L 1.1875 -2.84375 L 2.34375 -2.953125 C 3.03125 -3.015625 3.375 -3.34375 3.375 -3.9375 L 3.375 -20.25 L 1.375 -20.359375 L 1.375 -23.34375 L 18.3125 -23.34375 L 18.3125 -17.515625 L 14.734375 -17.265625 L 14.734375 -18.671875 C 14.734375 -19.066406 14.675781 -19.34375 14.5625 -19.5 C 14.445312 -19.664062 14.164062 -19.75 13.71875 -19.75 L 7.65625 -19.75 L 7.65625 -13.546875 L 16.28125 -13.546875 L 16.28125 -9.96875 L 7.65625 -9.96875 L 7.65625 -3.09375 L 10.78125 -2.984375 L 10.78125 0 Z M 1.1875 0 "/></g></g></g><g fill="#ffffff" fill-opacity="1"><g transform="translate(58.297037, 53.128465)"><g><path d="M 7.515625 -17.65625 L 7.515625 -2.90625 L 9.515625 -2.8125 L 9.515625 0 L 1.15625 0 L 1.15625 -2.671875 L 2.3125 -2.765625 C 2.988281 -2.835938 3.328125 -3.210938 3.328125 -3.890625 L 3.328125 -13.65625 C 3.328125 -14.050781 3.265625 -14.316406 3.140625 -14.453125 C 3.015625 -14.597656 2.785156 -14.671875 2.453125 -14.671875 L 1.234375 -14.734375 L 1.234375 -17.65625 Z M 3.078125 -20.6875 C 2.585938 -21.164062 2.34375 -21.78125 2.34375 -22.53125 C 2.34375 -23.28125 2.585938 -23.90625 3.078125 -24.40625 C 3.578125 -24.90625 4.222656 -25.15625 5.015625 -25.15625 C 5.816406 -25.15625 6.46875 -24.90625 6.96875 -24.40625 C 7.46875 -23.90625 7.71875 -23.28125 7.71875 -22.53125 C 7.71875 -21.78125 7.46875 -21.164062 6.96875 -20.6875 C 6.46875 -20.207031 5.816406 -19.96875 5.015625 -19.96875 C 4.222656 -19.96875 3.578125 -20.207031 3.078125 -20.6875 Z M 3.078125 -20.6875 "/></g></g></g><g fill="#ffffff" fill-opacity="1"><g transform="translate(68.682546, 53.128465)"><g><path d="M 9.96875 -18.171875 C 10.96875 -18.171875 11.925781 -18.03125 12.84375 -17.75 L 12.84375 -21.296875 C 12.84375 -21.816406 12.539062 -22.097656 11.9375 -22.140625 L 10.421875 -22.25 L 10.421875 -25.015625 L 16.953125 -25.015625 L 16.953125 -3.6875 C 16.972656 -3.144531 17.265625 -2.875 17.828125 -2.875 L 19.0625 -2.8125 L 19.0625 0 L 13.375 0 L 13.375 -2.078125 L 13.265625 -2.109375 C 12.210938 -0.398438 10.625 0.453125 8.5 0.453125 C 5.820312 0.453125 3.945312 -0.429688 2.875 -2.203125 C 1.894531 -3.816406 1.40625 -5.796875 1.40625 -8.140625 C 1.40625 -11.179688 2.160156 -13.613281 3.671875 -15.4375 C 5.179688 -17.257812 7.28125 -18.171875 9.96875 -18.171875 Z M 12.84375 -5.46875 L 12.84375 -14.5625 C 12 -14.9375 11.109375 -15.125 10.171875 -15.125 C 8.628906 -15.125 7.5 -14.503906 6.78125 -13.265625 C 6.070312 -12.023438 5.71875 -10.445312 5.71875 -8.53125 C 5.71875 -4.59375 6.984375 -2.625 9.515625 -2.625 C 10.472656 -2.625 11.265625 -2.898438 11.890625 -3.453125 C 12.523438 -4.003906 12.84375 -4.675781 12.84375 -5.46875 Z M 12.84375 -5.46875 "/></g></g></g><g fill="#ffffff" fill-opacity="1"><g transform="translate(88.611503, 53.128465)"><g><path d="M 9.96875 -18.171875 C 11.71875 -18.171875 13.109375 -17.742188 14.140625 -16.890625 C 15.171875 -16.035156 15.6875 -14.835938 15.6875 -13.296875 C 15.6875 -12.265625 15.460938 -11.359375 15.015625 -10.578125 C 14.578125 -9.796875 14.03125 -9.179688 13.375 -8.734375 C 12.71875 -8.296875 11.921875 -7.9375 10.984375 -7.65625 C 9.421875 -7.1875 7.65625 -6.953125 5.6875 -6.953125 C 5.757812 -5.710938 6.144531 -4.710938 6.84375 -3.953125 C 7.539062 -3.191406 8.613281 -2.8125 10.0625 -2.8125 C 11.519531 -2.8125 12.972656 -3.328125 14.421875 -4.359375 L 15.75 -1.515625 C 15.289062 -1.085938 14.503906 -0.648438 13.390625 -0.203125 C 12.273438 0.234375 11.003906 0.453125 9.578125 0.453125 C 6.722656 0.453125 4.628906 -0.332031 3.296875 -1.90625 C 1.960938 -3.488281 1.296875 -5.660156 1.296875 -8.421875 C 1.296875 -11.179688 2.054688 -13.492188 3.578125 -15.359375 C 5.097656 -17.234375 7.226562 -18.171875 9.96875 -18.171875 Z M 8.375 -10.15625 C 9.226562 -10.3125 10.015625 -10.648438 10.734375 -11.171875 C 11.460938 -11.703125 11.828125 -12.332031 11.828125 -13.0625 C 11.828125 -14.488281 11.125 -15.203125 9.71875 -15.203125 C 8.40625 -15.203125 7.398438 -14.679688 6.703125 -13.640625 C 6.003906 -12.597656 5.617188 -11.347656 5.546875 -9.890625 C 6.578125 -9.921875 7.519531 -10.007812 8.375 -10.15625 Z M 8.375 -10.15625 "/></g></g></g><g fill="#ffffff" fill-opacity="1"><g transform="translate(105.593217, 53.128465)"><g><path d="M 7.4375 -25.015625 L 7.4375 -2.90625 L 9.4375 -2.8125 L 9.4375 0 L 1.09375 0 L 1.09375 -2.671875 L 2.25 -2.765625 C 2.925781 -2.835938 3.265625 -3.210938 3.265625 -3.890625 L 3.265625 -21.203125 C 3.265625 -21.710938 2.972656 -21.988281 2.390625 -22.03125 L 1.15625 -22.109375 L 1.15625 -25.015625 Z M 7.4375 -25.015625 "/></g></g></g><g fill="#ffffff" fill-opacity="1"><g transform="translate(116.048898, 53.128465)"><g><path d="M 7.515625 -17.65625 L 7.515625 -2.90625 L 9.515625 -2.8125 L 9.515625 0 L 1.15625 0 L 1.15625 -2.671875 L 2.3125 -2.765625 C 2.988281 -2.835938 3.328125 -3.210938 3.328125 -3.890625 L 3.328125 -13.65625 C 3.328125 -14.050781 3.265625 -14.316406 3.140625 -14.453125 C 3.015625 -14.597656 2.785156 -14.671875 2.453125 -14.671875 L 1.234375 -14.734375 L 1.234375 -17.65625 Z M 3.078125 -20.6875 C 2.585938 -21.164062 2.34375 -21.78125 2.34375 -22.53125 C 2.34375 -23.28125 2.585938 -23.90625 3.078125 -24.40625 C 3.578125 -24.90625 4.222656 -25.15625 5.015625 -25.15625 C 5.816406 -25.15625 6.46875 -24.90625 6.96875 -24.40625 C 7.46875 -23.90625 7.71875 -23.28125 7.71875 -22.53125 C 7.71875 -21.78125 7.46875 -21.164062 6.96875 -20.6875 C 6.46875 -20.207031 5.816406 -19.96875 5.015625 -19.96875 C 4.222656 -19.96875 3.578125 -20.207031 3.078125 -20.6875 Z M 3.078125 -20.6875 "/></g></g></g><g fill="#ffffff" fill-opacity="1"><g transform="translate(126.434406, 53.128465)"><g><path d="M 10.359375 -14.984375 C 9.796875 -15.191406 9.113281 -15.296875 8.3125 -15.296875 C 7.519531 -15.296875 6.882812 -15.113281 6.40625 -14.75 C 5.925781 -14.394531 5.6875 -13.953125 5.6875 -13.421875 C 5.6875 -12.898438 5.773438 -12.488281 5.953125 -12.1875 C 6.128906 -11.894531 6.398438 -11.644531 6.765625 -11.4375 C 7.359375 -11.132812 8.0625 -10.867188 8.875 -10.640625 C 9.695312 -10.421875 10.304688 -10.25 10.703125 -10.125 C 11.097656 -10 11.59375 -9.78125 12.1875 -9.46875 C 12.789062 -9.164062 13.242188 -8.84375 13.546875 -8.5 C 14.367188 -7.625 14.78125 -6.507812 14.78125 -5.15625 C 14.78125 -3.40625 14.140625 -2.03125 12.859375 -1.03125 C 11.585938 -0.0390625 9.96875 0.453125 8 0.453125 C 5.144531 0.453125 2.992188 0.09375 1.546875 -0.625 L 1.546875 -5.515625 L 4.703125 -5.75 L 4.703125 -4.078125 C 4.703125 -3.046875 5.679688 -2.53125 7.640625 -2.53125 C 9.609375 -2.53125 10.59375 -3.242188 10.59375 -4.671875 C 10.59375 -5.179688 10.421875 -5.597656 10.078125 -5.921875 C 9.742188 -6.253906 9.410156 -6.476562 9.078125 -6.59375 C 8.753906 -6.707031 8.363281 -6.820312 7.90625 -6.9375 C 7.457031 -7.0625 7.015625 -7.179688 6.578125 -7.296875 C 6.148438 -7.410156 5.679688 -7.566406 5.171875 -7.765625 C 4.671875 -7.972656 4.117188 -8.265625 3.515625 -8.640625 C 2.316406 -9.410156 1.71875 -10.703125 1.71875 -12.515625 C 1.71875 -14.328125 2.359375 -15.722656 3.640625 -16.703125 C 4.929688 -17.679688 6.550781 -18.171875 8.5 -18.171875 C 10.457031 -18.171875 12.394531 -17.707031 14.3125 -16.78125 L 14.3125 -12.5625 L 11.15625 -12.3125 L 11.15625 -13.796875 C 11.15625 -14.378906 10.890625 -14.773438 10.359375 -14.984375 Z M 10.359375 -14.984375 "/></g></g></g></svg>